:FULLY-SPECIFIED
:FORCE-ALL-JOINTS-BE-3DOF
:DEGREES
1529
root -5.48487 15.4603 20.1031 -172.033 -9.01544 178.281
lfemur -41.4371 9.43654 -24.3629
ltibia 79.0365 -0 0
lfoot -11.8424 19.3894 0.057034
ltoes -28.2777 0 0
rfemur -47.1091 -4.10712 15.8641
rtibia 72.4258 -0 0
rfoot -17.6412 -8.07199 -0.0580547
rtoes -20.668 0 0
lowerback 19.1193 0.656897 1.05929
upperback -1.18446 1.59131 2.75245
thorax -11.9863 0.830327 1.95103
lowerneck -4.03082 5.97791 1.85726
upperneck 4.20134 8.52881 -8.36322
head 2.61187 4.13445 -2.45482
lclavicle 0 0 0
lhumerus 36.9353 -60.9515 62.1745
lradius 107.494 -0 0
lwrist 17.264 0 0
lhand -23.082 39.294 0.000983631
lfingers 0 0 0
lthumb 3.36393 69.2474 0.000949776
rclavicle 0 0 0
rhumerus -38.4739 46.0439 -81.4416
rradius 112.375 -0 0
rwrist -40.9138 0 0
rhand 6.19654 -30.7809 0.108743
rfingers 0 0 0
rthumb 31.5052 -58.0403 0.119047
1530
root -5.52301 15.473 20.1438 -171.932 -11.9486 177.859
lfemur -40.6266 9.52764 -24.2202
ltibia 77.8223 -0 0
lfoot -12.0734 19.2449 0.0614739
ltoes -28.7931 0 0
rfemur -47.396 -4.58725 15.8287
rtibia 73.2484 -0 0
rfoot -17.43 -8.23299 -0.062574
rtoes -20.1386 0 0
lowerback 19.0325 0.615162 0.688151
upperback -1.17174 1.44012 2.74247
thorax -11.9114 0.779611 2.19412
lowerneck -4.08908 5.61491 1.5772
upperneck 4.20156 8.0308 -8.0495
head 2.59269 3.88713 -2.33532
lclavicle 0 0 0
lhumerus 34.1186 -59.6349 64.3082
lradius 105.403 -0 0
lwrist 16.8557 0 0
lhand -23.085 39.1008 0.00106019
lfingers 0 0 0
lthumb 3.36105 69.0542 0.0010237
rclavicle 0 0 0
rhumerus -38.913 45.5274 -82.1178
rradius 112.887 -0 0
rwrist -41.0892 0 0
rhand 6.41424 -30.4884 0.117211
rfingers 0 0 0
rthumb 31.7122 -57.7035 0.128319
1531
root -5.55973 15.4852 20.1808 -171.805 -14.9579 177.416
lfemur -39.7944 9.61904 -24.0724
ltibia 76.5762 -0 0
lfoot -12.3106 19.0966 0.0654243
ltoes -29.3221 0 0
rfemur -47.6903 -5.08017 15.7948
rtibia 74.0927 -0 0
rfoot -17.2133 -8.39824 -0.066595
rtoes -19.5952 0 0
lowerback 18.9436 0.571746 0.307333
upperback -1.15866 1.28497 2.73219
thorax -11.8348 0.727232 2.44352
lowerneck -4.14699 5.24208 1.29034
upperneck 4.19893 7.51971 -7.72792
head 2.57247 3.63335 -2.21262
lclavicle 0 0 0
lhumerus 31.4381 -58.2334 66.2831
lradius 103.256 -0 0
lwrist 16.4366 0 0
lhand -23.088 38.9025 0.0011283
lfingers 0 0 0
lthumb 3.3581 68.8559 0.00108947
rclavicle 0 0 0
rhumerus -39.3504 44.9937 -82.7995
rradius 113.412 -0 0
rwrist -41.2692 0 0
rhand 6.63771 -30.1882 0.124746
rfingers 0 0 0
rthumb 31.9247 -57.3579 0.136569
1532
root -5.59505 15.4968 20.2143 -171.648 -18.0308 176.948
lfemur -38.9438 9.71021 -23.92
ltibia 75.3033 -0 0
lfoot -12.5529 18.945 0.0688255
ltoes -29.8624 0 0
rfemur -47.9909 -5.58386 15.7628
rtibia 74.9551 -0 0
rfoot -16.9919 -8.56705 -0.070057
rtoes -19.0402 0 0
lowerback 18.8532 0.526789 -0.0815975
upperback -1.14527 1.12648 2.72165
thorax -11.7567 0.673384 2.69821
lowerneck -4.20418 4.86095 0.997882
upperneck 4.19326 6.99766 -7.39979
head 2.55126 3.37416 -2.08723
lclavicle 0 0 0
lhumerus 28.8984 -56.7558 68.0969
lradius 101.064 -0 0
lwrist 16.0086 0 0
lhand -23.0912 38.6999 0.00118695
lfingers 0 0 0
lthumb 3.35508 68.6534 0.0011461
rclavicle 0 0 0
rhumerus -39.7839 44.4448 -83.4835
rradius 113.948 -0 0
rwrist -41.453 0 0
rhand 6.86602 -29.8815 0.131233
rfingers 0 0 0
rthumb 32.1418 -57.0048 0.143672
1533
root -5.62898 15.5079 20.2445 -171.457 -21.1546 176.455
lfemur -38.0782 9.80064 -23.7636
ltibia 74.0088 -0 0
lfoot -12.7993 18.7909 0.0716274
ltoes -30.4119 0 0
rfemur -48.2966 -6.09628 15.7329
rtibia 75.8322 -0 0
rfoot -16.7668 -8.73875 -0.0729089
rtoes -18.4757 0 0
lowerback 18.7615 0.480439 -0.477067
upperback -1.13163 0.965299 2.71089
thorax -11.6775 0.618264 2.95715
lowerneck -4.2603 4.47304 0.701001
upperneck 4.18442 6.46678 -7.06639
head 2.52912 3.11061 -1.95964
lclavicle 0 0 0
lhumerus 26.4997 -55.2118 69.7516
lradius 98.8345 -0 0
lwrist 15.5733 0 0
lhand -23.0944 38.4939 0.00123526
lfingers 0 0 0
lthumb 3.35201 68.4474 0.00119274
rclavicle 0 0 0
rhumerus -40.2113 43.8829 -84.1667
rradius 114.494 -0 0
rwrist -41.64 0 0
rhand 7.09825 -29.5696 0.136577
rfingers 0 0 0
rthumb 32.3626 -56.6456 0.149524
1534
root -5.66152 15.5185 20.2714 -171.229 -24.3166 175.931
lfemur -37.2012 9.88983 -23.6037
ltibia 72.6977 -0 0
lfoot -13.0489 18.6348 0.0737893
ltoes -30.9685 0 0
rfemur -48.6062 -6.6154 15.7054
rtibia 76.7205 -0 0
rfoot -16.5387 -8.91265 -0.0751095
rtoes -17.904 0 0
lowerback 18.6691 0.432853 -0.877506
upperback -1.11778 0.802063 2.69996
thorax -11.5976 0.562077 3.21932
lowerneck -4.31505 4.07989 0.400872
upperneck 4.1723 5.92918 -6.72898
head 2.50609 2.84374 -1.83035
lclavicle 0 0 0
lhumerus 24.2393 -53.6113 71.2519
lradius 96.5765 -0 0
lwrist 15.1324 0 0
lhand -23.0976 38.2852 0.00127253
lfingers 0 0 0
lthumb 3.3489 68.2388 0.00122873
rclavicle 0 0 0
rhumerus -40.6307 43.3102 -84.8462
rradius 115.047 -0 0
rwrist -41.8294 0 0
rhand 7.33346 -29.2537 0.140701
rfingers 0 0 0
rthumb 32.5863 -56.2819 0.154039
1535
root -5.69268 15.5286 20.2953 -170.96 -27.5038 175.374
lfemur -36.316 9.97735 -23.4411
ltibia 71.3752 -0 0
lfoot -13.3006 18.4773 0.0752811
ltoes -31.5299 0 0
rfemur -48.9186 -7.13917 15.6806
rtibia 77.6165 -0 0
rfoot -16.3087 -9.08807 -0.0766279
rtoes -17.3273 0 0
lowerback 18.5761 0.384201 -1.28134
upperback -1.10377 0.637411 2.68889
thorax -11.5173 0.505032 3.48368
lowerneck -4.36817 3.68303 0.0986572
upperneck 4.15687 5.38698 -6.38885
head 2.48226 2.57461 -1.69986
lclavicle 0 0 0
lhumerus 22.1124 -51.9643 72.6049
lradius 94.2989 -0 0
lwrist 14.6877 0 0
lhand -23.1008 38.0748 0.00129825
lfingers 0 0 0
lthumb 3.34576 68.0284 0.00125357
rclavicle 0 0 0
rhumerus -41.0404 42.7288 -85.5194
rradius 115.604 -0 0
rwrist -42.0204 0 0
rhand 7.57074 -28.935 0.143547
rfingers 0 0 0
rthumb 32.812 -55.915 0.157155
